<svg width="48" height="48" viewBox="0 0 48 48" fill="none" xmlns="http://www.w3.org/2000/svg">
    <path fill-rule="evenodd" clip-rule="evenodd" d="M36.295 40.82h.188c.213 0 .395-.081.395-.29 0-.147-.103-.295-.395-.295a1.32 1.32 0 0 0-.188.013v.571zm0 .933h-.26v-1.686c.137-.02.267-.04.461-.04.246 0 .409.053.506.128.097.073.15.187.15.348 0 .222-.144.356-.32.41v.013c.144.028.24.161.274.41.038.262.077.363.102.417h-.272c-.039-.054-.077-.209-.11-.43-.038-.215-.142-.295-.35-.295h-.181v.725zm.273-2.157c-.643 0-1.167.572-1.167 1.277 0 .718.524 1.282 1.173 1.282.648.007 1.167-.564 1.167-1.275 0-.712-.519-1.284-1.167-1.284h-.006zm.006-.234c.797 0 1.433.671 1.433 1.51 0 .854-.636 1.518-1.44 1.518-.797 0-1.446-.664-1.446-1.517 0-.84.649-1.511 1.447-1.511h.006zM8.392 22.705l.532 1.686h1.726l-1.395 1.043.533 1.688-1.396-1.043-1.396 1.043.533-1.688-1.396-1.043h1.725l.534-1.686zM39.766 22.705l.531 1.686h1.726l-1.396 1.043.533 1.688-1.394-1.043-1.398 1.043.535-1.688-1.397-1.043h1.726l.534-1.686z" fill="#fff"/>
    <mask id="ik4rj3y3ga" style="mask-type:luminance" maskUnits="userSpaceOnUse" x="4" y="18" width="10" height="14">
        <path fill-rule="evenodd" clip-rule="evenodd" d="M4 18.963h9.127v12.81H4v-12.81z" fill="#fff"/>
    </mask>
    <g mask="url(#ik4rj3y3ga)">
        <path fill-rule="evenodd" clip-rule="evenodd" d="M11.936 25.623c-1.372.873-2.124 2.005-2.512 2.961a6.27 6.27 0 0 0-.307.97l-.017.073-.062-.042a9.866 9.866 0 0 1-1.611-1.391c-1.132-1.223-2.205-3.01-2.208-5.504.004-.997.2-1.865.537-2.62l-.813-1.107C4.358 20.003 4 21.243 4 22.67v.027c0 2.965 1.346 5.116 2.666 6.481 1.323 1.375 2.638 2.054 2.678 2.074l1.06.52a3.986 3.986 0 0 1-.173-1.166c0-.455.076-.99.319-1.545a5.182 5.182 0 0 1 1.936-2.32 3.35 3.35 0 0 1 .641-.316c-.3-.199-1.008-.683-1.19-.803z" fill="#fff"/>
    </g>
    <mask id="od4crqk8ob" style="mask-type:luminance" maskUnits="userSpaceOnUse" x="34" y="18" width="10" height="14">
        <path fill-rule="evenodd" clip-rule="evenodd" d="M34.873 18.962h9.126v12.812h-9.126V18.962z" fill="#fff"/>
    </mask>
    <g mask="url(#od4crqk8ob)">
        <path fill-rule="evenodd" clip-rule="evenodd" d="M41.335 29.179C42.651 27.814 44 25.663 44 22.697v-.026c0-1.428-.36-2.67-.943-3.709l-.81 1.108c.334.754.532 1.623.533 2.62-.001 2.494-1.075 4.281-2.207 5.504a9.812 9.812 0 0 1-1.61 1.39l-.062.043-.018-.073a6.274 6.274 0 0 0-.305-.97c-.389-.956-1.142-2.088-2.514-2.961-.183.12-.89.604-1.19.803.132.048.372.148.643.317 1.076.717 1.607 1.59 1.934 2.317.235.527.308 1.057.308 1.513 0 .554-.107 1-.166 1.2l1.062-.52c.04-.02 1.358-.7 2.681-2.074z" fill="#fff"/>
    </g>
    <path fill-rule="evenodd" clip-rule="evenodd" d="M31.334 17.381a9.094 9.094 0 0 1 1.03-.48 10.19 10.19 0 0 1 3.696-.7h.017c1.277 0 2.873.457 4.183 1.377h1.888a7.61 7.61 0 0 0-.808-.73c-1.617-1.27-3.599-1.876-5.278-1.88-2.186.003-3.9.634-4.87 1.103l-.06.03-.012-.067c-.444-2.46-1.514-4.675-2.752-6.935C26.995 6.601 25.41 4.036 24.14 1c-1.27 3.036-2.855 5.601-4.227 8.1-1.238 2.26-2.309 4.474-2.752 6.934l-.012.067-.06-.03c-.97-.469-2.684-1.1-4.87-1.103-1.68.004-3.661.61-5.278 1.88a7.548 7.548 0 0 0-.807.73h1.886c1.31-.92 2.906-1.378 4.182-1.378H12.22a10.2 10.2 0 0 1 3.697.702 8.165 8.165 0 0 1 1.363.677l.006.003.002.002.84.578.11-1.023c.278-2.586 1.366-4.927 2.748-7.444.966-1.765 2.074-3.61 3.11-5.672l.044-.091.045.09c1.036 2.064 2.144 3.908 3.111 5.673 1.381 2.517 2.47 4.858 2.747 7.444l.11 1.023.837-.574.005-.005.006-.004s.004-.001.01-.006a8.545 8.545 0 0 1 .324-.192z" fill="#fff"/>
    <mask id="naigxawqbc" style="mask-type:luminance" maskUnits="userSpaceOnUse" x="11" y="31" width="26" height="16">
        <path fill-rule="evenodd" clip-rule="evenodd" d="M11.56 31.605H36.4V47H11.56V31.605z" fill="#fff"/>
    </mask>
    <g mask="url(#naigxawqbc)">
        <path fill-rule="evenodd" clip-rule="evenodd" d="M11.563 35.288c0 1.854.726 3.531 1.843 4.75 1.117 1.217 2.641 1.996 4.263 1.997.743 0 1.493-.166 2.213-.516l.067.023c.56 1.188 1.883 3.639 4.031 5.458 2.15-1.822 3.472-4.27 4.03-5.458l.022-.046a5.089 5.089 0 0 0 2.253.539c1.629 0 3.152-.78 4.27-1.998a7.044 7.044 0 0 0 1.843-4.749c0-.09.003-.207.003-.348 0-.668-.07-1.876-.86-3.335-.003 1.79-1.347 2.976-1.754 3.217a2.385 2.385 0 0 1-1.225.335c-.59-.001-1.158-.208-1.586-.432a4.747 4.747 0 0 1-.65-.41l-1.044.74c.166.135.625.493 1.072.732.548.293 1.313.598 2.208.6.592 0 1.23-.142 1.844-.502.231-.136.456-.3.675-.494l.088-.079-.003.118a5.814 5.814 0 0 1-1.518 3.776c-.917 1.002-2.135 1.598-3.35 1.598-.74-.001-1.482-.209-2.21-.7l-.645-.503-.278.826c-.013.025-.028.063-.05.111a19.39 19.39 0 0 1-.19.428c-.173.364-.431.879-.775 1.465-.517.879-1.23 1.913-2.122 2.84l-.048.05c-.04-.041-.042-.045-.047-.05-.892-.927-1.605-1.961-2.122-2.84a18.296 18.296 0 0 1-.775-1.465c-.086-.184-.15-.33-.191-.428l-.047-.11-.281-.827-.648.506c-.725.488-1.466.696-2.2.697-1.222 0-2.44-.596-3.358-1.598a5.824 5.824 0 0 1-1.517-3.776l-.002-.118.088.079c.22.195.444.358.674.494a3.62 3.62 0 0 0 1.838.503c.901-.003 1.667-.308 2.215-.6.447-.24.906-.598 1.071-.732l-1.043-.741a4.578 4.578 0 0 1-.65.409c-.428.225-.997.432-1.578.433-.406-.001-.812-.09-1.232-.335-.408-.242-1.753-1.426-1.755-3.187a6.616 6.616 0 0 0-.86 3.305c0 .14.003.259.003.348z" fill="#fff"/>
    </g>
    <path fill-rule="evenodd" clip-rule="evenodd" d="M23.2 16.9h1.756l-.89-12.24-.867 12.24zM20.188 27.626c.081.841.235 1.76.501 2.65v-2.65h-.502zM21.316 27.878v3.92c.148.305.314.599.502.876v-4.796h-.502zM22.697 28.005v5.336c.156.166.322.322.502.468v-5.804h-.502zM23.826 27.752v6.418c.078.05.16.098.243.144a4.54 4.54 0 0 0 .26-.155v-6.407h-.503zM25.207 28.005v5.804c.18-.147.347-.305.502-.471v-5.333h-.502zM26.336 27.878v4.796c.188-.28.354-.58.502-.888v-3.908h-.502zM28.219 27.878h-.502v2.398c.264-.807.419-1.637.502-2.398zM20.797 36.251c.168.053.553.104.553.104l.97-2.404a7.12 7.12 0 0 1-1.687-2.16c-.21.496-1.443 3.408-1.458 3.488-.017.086.034.225.15.294.118.07.368.226.368.226s-.318.627-.618.765c-.301.14-.853.365-1.355.33-.502-.035-.823-.045-.904.382-.133.712.537 1.076.537 1.076s-.268-.78.216-.78h3.06c.185 0 .385.242.201.677.403-.175.553-.52.47-.957-.084-.433-.553-.363-.77-.38-.218-.019-.602-.14-.602-.14l.418-.694s.284.122.45.173z" fill="#fff"/>
    <path fill-rule="evenodd" clip-rule="evenodd" d="M26.45 21.452s.153.809.475.809c.323 0 1.827-1.384 2.379-1.943.552-.56 2.294-2.166 4.366-2.166 2.072 0 9.48.018 9.48.018s-.254.79-.884.91c-.628.12-4.434.517-4.434.517H42.2s-.442.806-1.088.927c-.645.12-3.482.413-3.482.413h3.363s-.322.842-1.137.996c-.816.155-3.483.38-3.483.38h3.21s-.458.79-1.172.944c-.713.155-3.533.447-3.533.447h3.006s-.423.74-1.206.876c-.782.138-3.16.464-3.16.464h2.566s-.628.843-1.512.998c-.884.153-2.617.412-2.617.412h1.836s-.8.687-1.427.877c-.63.19-2.277.48-2.277.48h1.341l-2.446 1.478v.242l2.804 2.767s-.425.756-1.174 1.391c-.747.637-1.222.878-1.222.878l-1.442-3.327c.07-.16.139-.322.2-.485.642-1.695.776-3.46.777-4.678 0-.932-.08-1.544-.081-1.555l-.028-.212-4.556-1.062-.066-.018-.07.018-4.556 1.061-.027.213c-.003.01-.085.632-.085 1.578 0 1.219.135 2.98.776 4.67.064.17.136.338.21.506l-1.425 3.29s-.476-.24-1.225-.877c-.747-.635-1.172-1.39-1.172-1.39l2.803-2.768v-.242l-2.446-1.477h1.343s-1.648-.292-2.276-.48c-.63-.19-1.428-.878-1.428-.878h1.834s-1.733-.259-2.616-.412c-.883-.155-1.512-.998-1.512-.998h2.566s-2.379-.326-3.161-.464c-.781-.136-1.207-.876-1.207-.876h3.008s-2.82-.292-3.533-.447c-.715-.154-1.173-.945-1.173-.945h3.211s-2.667-.224-3.482-.38c-.816-.153-1.14-.995-1.14-.995h3.364s-2.836-.293-3.482-.413c-.645-.12-1.087-.927-1.087-.927h4.366s-3.805-.396-4.434-.517c-.628-.12-.883-.91-.883-.91s7.408-.018 9.48-.018 3.814 1.607 4.366 2.166c.552.559 2.056 1.943 2.378 1.943.323 0 .769-.594.769-.594.255-.504.537-1.344.537-1.344s-.384-.143-.627-.298c-.242-.156-.37-.413-.37-.413h.946c.242 0 .973.18.907.555-.063.376-.613 2.135-.613 2.135s.576.117 1.151.117c.576 0 1.598-.117 1.598-.117s-.472-3.067-.524-3.415c-.05-.351-.576-.467-1.023-.467-.447 0-.805.103-.895.128-.09.028-.116.119.064.222.179.104.384.038.384.038s-.013.22-.179.35c-.166.13-.563.155-.832.155s-.754-.026-.922.014c-.165.038-.255.129-.293.205-.039.08.115.401.115.401s-.27.118-.448-.335c-.18-.454-.054-.862.142-.996.446-.311 1.406-.117 1.406-.117s.218-.568.819-.815c.6-.246 1.202-.104 1.751-.039.55.064 1.074.039 1.074.039l-.46.79s.375 2.376.495 2.992z" fill="#fff"/>
    <path fill-rule="evenodd" clip-rule="evenodd" d="M25.429 34.062a6.48 6.48 0 0 1-1.25.714l-.117.05-.118-.05a6.502 6.502 0 0 1-1.224-.695l-.65 1.739s.64.253 1.979.26h.058c1.34-.007 1.979-.26 1.979-.26l-.657-1.757v-.001zM30.563 36.9c-.5.036-1.051-.188-1.353-.327-.3-.138-.617-.761-.617-.761s.25-.155.367-.225c.117-.068.167-.207.15-.293-.016-.08-1.308-3.122-1.47-3.503a7.125 7.125 0 0 1-1.68 2.162l.98 2.412s.384-.051.55-.103c.167-.051.452-.173.452-.173l.417.691s-.384.12-.601.139c-.217.017-.685-.053-.768.379-.084.434.066.777.467.951-.184-.432.017-.674.2-.674h3.056c.485 0 .217.777.217.777s.668-.362.535-1.07c-.08-.425-.401-.416-.902-.381zM27.528 25.426l.122.372-.32-.23-.32.23.123-.372-.319-.23h.395l.12-.37.123.37h.396l-.32.23zm.122 1.457-.32-.23-.32.23.123-.37-.319-.23h.395l.12-.37.123.37h.396l-.32.23.122.37zm-1.087-1.35-.32-.231-.32.23.122-.371-.319-.231h.396l.12-.37.123.37h.395l-.32.231.123.371zm-.205 1.35-.32-.23-.32.23.122-.37-.318-.23h.393l.123-.37.122.37h.395l-.319.23.122.37zm-1.202-1.846-.32.23.122-.372-.32-.23h.395l.123-.371.121.371h.395l-.32.23.123.372-.32-.23zm-.09 1.846-.321-.23-.319.23.122-.37-.32-.23h.396l.12-.37.123.37h.396l-.32.23.122.37zM23.76 25l.12-.37-.318-.229h.396l.121-.372.122.372h.396l-.32.229.122.37-.32-.229-.319.23zm-.04 1.883-.319-.23-.32.23.122-.37-.32-.23h.396l.122-.37.122.37h.396l-.32.23.121.37zm-1.246-2.218h.396l.122-.371.122.371h.394l-.319.23.122.372-.32-.23-.32.23.123-.372-.32-.23zm-.047 2.218-.318-.23-.32.23.122-.37-.32-.23h.396l.122-.37.122.37h.395l-.32.23.121.37zm-1.04-1.953h.395l.122-.37.121.37h.396l-.319.231.122.371-.32-.23-.32.23.122-.371-.32-.231zm-.374.496.123.372-.32-.23-.319.23.12-.372-.318-.23h.395l.122-.37.122.37h.396l-.321.23zm.123 1.457-.32-.23-.319.23.12-.37-.318-.23h.395l.122-.37.122.37h.396l-.321.23.123.37zm7.028-2.114-4.085-.929-4.086.93-.016.188a14.227 14.227 0 0 0 .001 2.163h8.198c.03-.404.043-.782.043-1.114 0-.56-.032-.996-.055-1.238z" fill="#fff"/>
</svg>
